<svg width="75" height="75" viewBox="0 0 75 75" fill="none" xmlns="http://www.w3.org/2000/svg">
<path opacity="0.5" d="M34.3221 44.8476L24.0194 55.1503C22.262 56.9077 22.262 59.7569 24.0194 61.5143L34.3221 71.817C36.0794 73.5744 38.9287 73.5744 40.686 71.817L50.9888 61.5143C52.7461 59.7569 52.7461 56.9077 50.9888 55.1503L40.686 44.8476C38.9287 43.0903 36.0795 43.0903 34.3221 44.8476Z" fill="white"/>
<path d="M34.3221 3.18198L24.0194 13.4847C22.262 15.242 22.262 18.0913 24.0194 19.8486L34.3221 30.1514C36.0794 31.9087 38.9287 31.9087 40.686 30.1514L50.9888 19.8486C52.7461 18.0913 52.7461 15.242 50.9888 13.4847L40.686 3.18198C38.9287 1.42462 36.0795 1.42462 34.3221 3.18198Z" fill="white"/>
<path opacity="0.8" d="M55.1511 24.0147L44.8484 34.3174C43.091 36.0748 43.091 38.924 44.8484 40.6814L55.1511 50.9841C56.9084 52.7415 59.7577 52.7415 61.515 50.9841L71.8177 40.6814C73.5751 38.9241 73.5751 36.0748 71.8177 34.3175L61.515 24.0147C59.7577 22.2574 56.9084 22.2574 55.1511 24.0147Z" fill="white"/>
<path opacity="0.3" d="M13.4847 24.0147L3.18198 34.3174C1.42462 36.0748 1.42462 38.924 3.18198 40.6814L13.4847 50.9841C15.242 52.7415 18.0913 52.7415 19.8486 50.9841L30.1514 40.6814C31.9087 38.9241 31.9087 36.0748 30.1514 34.3175L19.8486 24.0147C18.0913 22.2574 15.242 22.2574 13.4847 24.0147Z" fill="white"/>
</svg>
