<svg width="96" height="96" viewBox="0 0 96 96" fill="none" xmlns="http://www.w3.org/2000/svg">
<path opacity="0.5" d="M44.8232 56.514L29.8539 71.4834C28.0965 73.2407 28.0965 76.09 29.8539 77.8473L44.8232 92.8167C46.5806 94.5741 49.4298 94.5741 51.1872 92.8167L66.1566 77.8473C67.9139 76.09 67.9139 73.2407 66.1566 71.4834L51.1872 56.514C49.4298 54.7567 46.5806 54.7567 44.8232 56.514Z" fill="#0A0A0A"/>
<path d="M44.8232 3.18198L29.8539 18.1514C28.0965 19.9087 28.0965 22.758 29.8539 24.5153L44.8232 39.4847C46.5806 41.242 49.4298 41.242 51.1872 39.4847L66.1566 24.5153C67.9139 22.758 67.9139 19.9087 66.1566 18.1514L51.1872 3.18198C49.4298 1.42462 46.5806 1.42462 44.8232 3.18198Z" fill="#0A0A0A"/>
<path opacity="0.8" d="M71.4844 29.848L56.515 44.8174C54.7576 46.5747 54.7576 49.424 56.515 51.1813L71.4844 66.1507C73.2417 67.9081 76.091 67.9081 77.8483 66.1507L92.8177 51.1813C94.5751 49.424 94.5751 46.5747 92.8177 44.8174L77.8483 29.848C76.091 28.0906 73.2417 28.0906 71.4844 29.848Z" fill="#0A0A0A"/>
<path opacity="0.3" d="M18.1514 29.848L3.18198 44.8174C1.42462 46.5747 1.42462 49.424 3.18198 51.1813L18.1514 66.1507C19.9087 67.9081 22.758 67.9081 24.5153 66.1507L39.4847 51.1813C41.242 49.424 41.242 46.5747 39.4847 44.8174L24.5153 29.848C22.758 28.0906 19.9087 28.0906 18.1514 29.848Z" fill="#0A0A0A"/>
</svg>
